<svg width="35" height="38" viewBox="0 0 35 38" fill="none" xmlns="http://www.w3.org/2000/svg">
<path d="M34.08 37H31.36L30.22 34.83H28.12V37H25.35V28.6H30.16C32.49 28.6 33.8 29.6 33.8 31.81C33.8 32.94 33.29 33.74 32.58 34.24L34.08 37ZM28.12 30.9V32.76H29.97C30.67 32.76 31.03 32.42 31.03 31.83C31.03 31.24 30.67 30.9 29.97 30.9H28.12Z" fill="white"/>
<path d="M5.70312 0.551283C4.54687 -0.159529 3.09375 -0.182962 1.91406 0.480983C0.734375 1.14493 0 2.39471 0 3.75384V31.249C0 32.6081 0.734375 33.8579 1.91406 34.5218C3.09375 35.1858 4.54687 35.1545 5.70312 34.4515L28.2031 20.704C29.3203 20.0244 30 18.8137 30 17.5014C30 16.1891 29.3203 14.9862 28.2031 14.2989L5.70312 0.551283Z" fill="white"/>
</svg>
